<svg viewBox="0 0 49.8 18.65" xmlns="http://www.w3.org/2000/svg"><g fill="#fff"><path d="m7.25 14.33 2-1.01 2 1.01 2-1-.01-2 2.01-1.01v-2l-2-.99v-2l-2-1.01-2 1.01-2-1.01-2 1.01v1.99l2 1 2-1 2 1v2l-2 1.01-2-1-2 1v2z"/><path d="m1.24 13.33v2l2.01 1 2-1.01v-2l-2.01-.99z"/><g transform="translate(-5.45 -2.99)"><path d="m14.72 3a9.33 9.33 0 0 0 -9.27 8.32h2.17a7.17 7.17 0 1 1 3.07 6.94v2.46a9.21 9.21 0 0 0 4 .93 9.33 9.33 0 0 0 .03-18.65z"/><path d="m42.56 9.28v-2h1.5v-1h-1.5v-1.68h-1.25v1.66h-1.19v1h1.19v2.74a1.67 1.67 0 0 0 .14.73 1.1 1.1 0 0 0 .38.42 1.49 1.49 0 0 0 .51.19 2.51 2.51 0 0 0 .55.06 1.72 1.72 0 0 0 .39 0 2.44 2.44 0 0 0 .26-.06v-1l-.21.06a1.27 1.27 0 0 1 -.28 0c-.21 0-.35-.07-.4-.21a1.42 1.42 0 0 1 -.09-.57z"/><path d="m47 11.53a3 3 0 0 1 -1.41-.32 2.39 2.39 0 0 1 -1-.93 2.59 2.59 0 0 1 -.34-1.39 2.57 2.57 0 0 1 .34-1.38 2.35 2.35 0 0 1 1-.89 3.34 3.34 0 0 1 2.48-.15 2.28 2.28 0 0 1 .77.47 2 2 0 0 1 .48.64 1.53 1.53 0 0 1 .17.69h-1.22a.09.09 0 0 0 0-.05.13.13 0 0 0 0-.06.84.84 0 0 0 -.19-.43 1.1 1.1 0 0 0 -.42-.32 1.36 1.36 0 0 0 -.66-.08 1.5 1.5 0 0 0 -.72.17 1.3 1.3 0 0 0 -.52.52 1.76 1.76 0 0 0 -.19.87 1.87 1.87 0 0 0 .19.87 1.31 1.31 0 0 0 1.24.73 1.62 1.62 0 0 0 .69-.12 1 1 0 0 0 .41-.36 1 1 0 0 0 .16-.48h1.24a1.75 1.75 0 0 1 -.16.71 2.12 2.12 0 0 1 -.47.64 2.33 2.33 0 0 1 -.78.47 2.85 2.85 0 0 1 -1.08.18z"/><path d="m54.66 6.84a1.78 1.78 0 0 0 -1.4-.54 2.24 2.24 0 0 0 -1.11.26 2 2 0 0 0 -.58.47v-3.03h-1.25v7.43h1.25v-2.82a1.43 1.43 0 0 1 .15-.61 1 1 0 0 1 .42-.43 1.44 1.44 0 0 1 .68-.15.94.94 0 0 1 .83.34 1.61 1.61 0 0 1 .24.95v2.75h1.25v-3.11a2.21 2.21 0 0 0 -.48-1.51z"/><path d="m32.76 4.36v3h-2.76v-3h-1.23v3h1.23v1h-1.23v3h1.23v-3h2.74v3h1.26v-7z"/><path d="m28.77 7.37h-1.26v1h1.26z"/><path d="m39.74 8.34v-.4a1.53 1.53 0 0 0 -.33-1 1.93 1.93 0 0 0 -.87-.59 3.41 3.41 0 0 0 -1.19-.19 3.32 3.32 0 0 0 -1.25.21 1.94 1.94 0 0 0 -.87.63 1.51 1.51 0 0 0 -.31 1h1.23a.71.71 0 0 1 .31-.64 1.64 1.64 0 0 1 .88-.2 1.65 1.65 0 0 1 .85.18.66.66 0 0 1 .22.22.5.5 0 0 1 .07.29c0 .12-.11.21-.34.26a9.77 9.77 0 0 1 -1.21.16 3.88 3.88 0 0 0 -1.06.24 1.76 1.76 0 0 0 -.77.52 1.3 1.3 0 0 0 -.28.85 1.38 1.38 0 0 0 .24.81 1.63 1.63 0 0 0 .67.52 2.63 2.63 0 0 0 1 .17 3.33 3.33 0 0 0 .88-.12 2.31 2.31 0 0 0 .69-.26 1.54 1.54 0 0 0 .19-.17v.51h1.25zm-1.25.66v.15a1.16 1.16 0 0 1 -.2.72 1.24 1.24 0 0 1 -.54.41 2 2 0 0 1 -.72.13 1.22 1.22 0 0 1 -.71-.16.61.61 0 0 1 -.19-.2.5.5 0 0 1 -.05-.27.42.42 0 0 1 .07-.27.43.43 0 0 1 .21-.19 2.46 2.46 0 0 1 .84-.2l.87-.12.43-.09z"/><path d="m29.27 20.26v-1.9h-.5v-.47h.5v-.21a.92.92 0 0 1 .05-.37 1.17 1.17 0 0 1 .15-.27.72.72 0 0 1 .22-.17.82.82 0 0 1 .26-.1 1.43 1.43 0 0 1 .29 0h.2.09v.47h-.09-.14a.54.54 0 0 0 -.22 0 .26.26 0 0 0 -.14.11.46.46 0 0 0 -.07.16 1.23 1.23 0 0 0 0 .2v.16h.65v.47h-.65v1.9z"/><path d="m31.89 20.31a1.4 1.4 0 0 1 -.66-.16 1.16 1.16 0 0 1 -.44-.44 1.34 1.34 0 0 1 0-1.27 1.21 1.21 0 0 1 .44-.43 1.44 1.44 0 0 1 1.32 0 1.21 1.21 0 0 1 .44.43 1.16 1.16 0 0 1 .16.63 1.27 1.27 0 0 1 -.16.64 1.16 1.16 0 0 1 -.44.44 1.4 1.4 0 0 1 -.66.16zm0-.48a.62.62 0 0 0 .35-.1.6.6 0 0 0 .24-.26.76.76 0 0 0 .08-.39.8.8 0 0 0 -.08-.4.74.74 0 0 0 -.24-.26.73.73 0 0 0 -.7 0 .85.85 0 0 0 -.24.26.8.8 0 0 0 -.08.4.76.76 0 0 0 .08.39.67.67 0 0 0 .24.26.62.62 0 0 0 .35.1z"/><path d="m35 17.87a.82.82 0 0 0 -.22 0 1 1 0 0 0 -.33.06.63.63 0 0 0 -.24.16.71.71 0 0 0 -.1.14v-.32h-.59v2.37h.59v-1.2a1 1 0 0 1 0-.24.6.6 0 0 1 .1-.23.42.42 0 0 1 .19-.16.63.63 0 0 1 .3-.07.57.57 0 0 1 .18 0h.09l.11-.54h-.11z"/><path d="m38.06 20.36a1.36 1.36 0 0 1 -.6-.11.89.89 0 0 1 -.41-.33 1 1 0 0 1 -.14-.56v-.14h.58v.13a.37.37 0 0 0 0 .21.45.45 0 0 0 .11.19.64.64 0 0 0 .44.13.8.8 0 0 0 .43-.09.41.41 0 0 0 .12-.14.32.32 0 0 0 0-.17.32.32 0 0 0 0-.14.24.24 0 0 0 -.07-.12.81.81 0 0 0 -.29-.19 2.78 2.78 0 0 0 -.4-.16 2 2 0 0 1 -.47-.21 1 1 0 0 1 -.34-.32.88.88 0 0 1 -.12-.48.75.75 0 0 1 .14-.48.92.92 0 0 1 .4-.3 1.42 1.42 0 0 1 .58-.1 1.55 1.55 0 0 1 .6.1 1 1 0 0 1 .4.32 1 1 0 0 1 .15.53v.15h-.59v-.08a.44.44 0 0 0 0-.2.57.57 0 0 0 -.12-.18.59.59 0 0 0 -.41-.12.77.77 0 0 0 -.42.1.28.28 0 0 0 -.11.13.33.33 0 0 0 0 .17.4.4 0 0 0 .1.26.92.92 0 0 0 .28.19l.39.15a2.91 2.91 0 0 1 .51.22.9.9 0 0 1 .33.31.77.77 0 0 1 .12.47.78.78 0 0 1 -.14.49 1 1 0 0 1 -.41.31 1.57 1.57 0 0 1 -.61.1z"/><path d="m40.54 19.36v-.95h.7v-.47h-.7v-.78h-.54v.78h-.6v.47h.6v1.3a.77.77 0 0 0 .07.34.55.55 0 0 0 .17.2.59.59 0 0 0 .24.09h.26.18.13v-.46h-.1-.13a.14.14 0 0 1 -.11 0 .2.2 0 0 1 -.08-.08.84.84 0 0 1 0-.27v-.16z"/><path d="m49.28 18v1.23a.82.82 0 0 1 -.07.31.68.68 0 0 1 -.2.27.45.45 0 0 1 -.3.1.37.37 0 0 1 -.28-.09.38.38 0 0 1 -.14-.21 1 1 0 0 1 0-.3v-1.31h-.58v1.47a1.87 1.87 0 0 0 0 .34.83.83 0 0 0 .14.3.61.61 0 0 0 .25.23.9.9 0 0 0 .42.08.78.78 0 0 0 .4-.08 1.19 1.19 0 0 0 .31-.23l.06-.08v.34h.58v-2.37z"/><path d="m52.54 18.5a1 1 0 0 0 -1.44-.42 1.37 1.37 0 0 0 -.23.19v-.27h-.58v3.35h.58v-1.29a.87.87 0 0 0 .23.2.92.92 0 0 0 .51.15 1.07 1.07 0 0 0 .94-.57 1.43 1.43 0 0 0 .14-.68 1.26 1.26 0 0 0 -.15-.66zm-.63 1.21a.64.64 0 0 1 -.19.13.67.67 0 0 1 -.24 0 .6.6 0 0 1 -.29-.08.58.58 0 0 1 -.23-.21.56.56 0 0 1 -.09-.31v-.24a.59.59 0 0 1 .09-.31.74.74 0 0 1 .23-.2.6.6 0 0 1 .29-.08.69.69 0 0 1 .24 0 .41.41 0 0 1 .19.13.7.7 0 0 1 .18.54.74.74 0 0 1 -.18.55z"/><path d="m54.08 20.41a1.75 1.75 0 0 1 -.4-.05 1.28 1.28 0 0 1 -.34-.14.84.84 0 0 1 -.23-.23.63.63 0 0 1 -.09-.33v-.05h.58a.2.2 0 0 0 0 .13.2.2 0 0 0 .09.09.77.77 0 0 0 .36.07h.24a.56.56 0 0 0 .17-.09.18.18 0 0 0 .07-.14.2.2 0 0 0 0-.13.27.27 0 0 0 -.1-.08 2.46 2.46 0 0 0 -.45-.11 1.94 1.94 0 0 1 -.33-.07 1 1 0 0 1 -.3-.14.7.7 0 0 1 -.22-.2.61.61 0 0 1 -.08-.3.62.62 0 0 1 .14-.39.84.84 0 0 1 .37-.25 1.88 1.88 0 0 1 .52-.08 1.3 1.3 0 0 1 .51.08 1.08 1.08 0 0 1 .37.26.57.57 0 0 1 .14.41h-.57a.29.29 0 0 0 0-.09.12.12 0 0 0 0-.07.34.34 0 0 0 -.16-.1.78.78 0 0 0 -.22 0h-.2a.48.48 0 0 0 -.18.07.18.18 0 0 0 -.05.07.17.17 0 0 0 0 .16.18.18 0 0 0 .05.07.67.67 0 0 0 .21.09l.3.06.32.08a1.66 1.66 0 0 1 .31.12.63.63 0 0 1 .22.21.48.48 0 0 1 .08.31.54.54 0 0 1 -.08.33.66.66 0 0 1 -.24.23 1.22 1.22 0 0 1 -.34.14 2.91 2.91 0 0 1 -.4.05z"/><path d="m46.6 19.41v-.93h.71v-.48h-.71v-.8h-.6v.8h-.3a2.27 2.27 0 0 0 -.52 0 .5.5 0 0 0 -.27.16.69.69 0 0 0 -.11.13v-.29h-.58v2.38h.58v-1.2a1.07 1.07 0 0 1 0-.25.74.74 0 0 1 .1-.22.51.51 0 0 1 .19-.17.72.72 0 0 1 .29-.06h.62v1.27a.7.7 0 0 0 .06.35.47.47 0 0 0 .18.19.5.5 0 0 0 .24.09 1.07 1.07 0 0 0 .25 0h.19.12v-.48h-.1-.13a.14.14 0 0 1 -.11 0 .2.2 0 0 1 -.08-.08.8.8 0 0 1 0-.27v-.16z"/><path d="m43.71 20.35v-1.62a.77.77 0 0 0 -.15-.46 1 1 0 0 0 -.41-.28 1.76 1.76 0 0 0 -.55-.09 1.7 1.7 0 0 0 -.6.1.85.85 0 0 0 -.4.3.78.78 0 0 0 -.15.47h.55a.25.25 0 0 1 0-.17.28.28 0 0 1 .11-.13.74.74 0 0 1 .41-.1.93.93 0 0 1 .4.09.32.32 0 0 1 .1.1.22.22 0 0 1 0 .14c0 .06 0 .1-.16.12a5 5 0 0 1 -.56.08 1.72 1.72 0 0 0 -.5.11.85.85 0 0 0 -.35.24.6.6 0 0 0 -.13.4.57.57 0 0 0 .11.38.75.75 0 0 0 .31.25 1.24 1.24 0 0 0 .46.08 1.84 1.84 0 0 0 .41-.05 1.26 1.26 0 0 0 .33-.16l.11-.1v.29zm-.58-1a.46.46 0 0 1 -.09.32.49.49 0 0 1 -.26.21.92.92 0 0 1 -.33.06.65.65 0 0 1 -.34-.07.39.39 0 0 1 -.08-.1.27.27 0 0 1 0-.12.28.28 0 0 1 0-.13.28.28 0 0 1 .1-.09.93.93 0 0 1 .4-.09l.4-.06h.2z"/><path d="m28.74 15.81v-3.23h1a1.59 1.59 0 0 1 .59.11 1.45 1.45 0 0 1 .45.33 1.58 1.58 0 0 1 .29.51 2.23 2.23 0 0 1 0 1.32 1.58 1.58 0 0 1 -.29.51 1.45 1.45 0 0 1 -.45.33 1.41 1.41 0 0 1 -.59.12zm.57-.18-.26-.28h.58a.86.86 0 0 0 .47-.14 1.2 1.2 0 0 0 .33-.4 1.67 1.67 0 0 0 .11-.62 1.64 1.64 0 0 0 -.11-.62 1.07 1.07 0 0 0 -.33-.39.79.79 0 0 0 -.47-.14h-.58l.26-.29z"/><path d="m31.79 13.05a.37.37 0 0 1 -.25-.09.3.3 0 0 1 -.1-.24.27.27 0 0 1 .1-.24.37.37 0 0 1 .25-.09.36.36 0 0 1 .24.09.3.3 0 0 1 .1.24.33.33 0 0 1 -.13.28.36.36 0 0 1 -.21.05zm-.29 2.75v-2.32h.57v2.32z"/><path d="m34.2 15.57a1.6 1.6 0 0 1 .36.08.48.48 0 0 1 .24.17.49.49 0 0 1 .09.3.57.57 0 0 1 -.14.37.94.94 0 0 1 -.42.23 2.2 2.2 0 0 1 -.67.08 2 2 0 0 1 -.9-.16.51.51 0 0 1 -.31-.46.32.32 0 0 1 0-.14.66.66 0 0 1 0-.11l.55.07a.08.08 0 0 0 0 .06.24.24 0 0 0 0 .09c0 .09.06.16.19.2a1.56 1.56 0 0 0 .48.06 2 2 0 0 0 .38 0 .5.5 0 0 0 .22-.09.15.15 0 0 0 .08-.13.14.14 0 0 0 -.1-.15.87.87 0 0 0 -.25-.04l-.88-.09a.68.68 0 0 1 -.39-.14.34.34 0 0 1 -.15-.3.43.43 0 0 1 .06-.22.57.57 0 0 1 .15-.16.32.32 0 0 1 .13-.08l.33.16s-.06 0-.11.06a.14.14 0 0 0 -.06.12.16.16 0 0 0 .06.12.67.67 0 0 0 .24.06zm.26-2.09h.54l-.21.9a1.46 1.46 0 0 1 -.2.46.85.85 0 0 1 -.34.31 1.16 1.16 0 0 1 -.56.12 1.48 1.48 0 0 1 -.59-.11.89.89 0 0 1 -.39-.32.84.84 0 0 1 -.14-.47.91.91 0 0 1 .14-.49 1 1 0 0 1 .39-.32 1.2 1.2 0 0 1 .55-.12 1.25 1.25 0 0 1 .45.08 1.11 1.11 0 0 1 .32.21.44.44 0 0 1 .12.29h-.12zm-.79 1.34a.65.65 0 0 0 .29-.05.43.43 0 0 0 .19-.16.48.48 0 0 0 0-.5.38.38 0 0 0 -.15-.11.65.65 0 0 0 -.29-.06.64.64 0 0 0 -.28.06.4.4 0 0 0 -.2.16.43.43 0 0 0 -.07.25.41.41 0 0 0 .07.25.38.38 0 0 0 .19.16.65.65 0 0 0 .25 0z"/><path d="m35.31 15.8v-2.32h.56v2.32zm.28-2.75a.36.36 0 0 1 -.24-.09.3.3 0 0 1 -.11-.24.28.28 0 0 1 .11-.24.37.37 0 0 1 .48 0 .28.28 0 0 1 .11.24.3.3 0 0 1 -.11.24.36.36 0 0 1 -.24.09z"/><path d="m37.48 15.85h-.25a.5.5 0 0 1 -.24-.09.4.4 0 0 1 -.17-.19.77.77 0 0 1 -.07-.33v-1.3h-.55v-.46h.56v-.77h.58v.77h.66v.46h-.69v1.06a.83.83 0 0 0 0 .26c0 .07.09.1.19.1h.13.09v.45h-.12z"/><path d="m41.5 12.41v3.42h-.57v-3.42z"/><path d="m43.25 15.88a1.42 1.42 0 0 1 -.55-.11 1.16 1.16 0 0 1 -.44-.32 1.53 1.53 0 0 1 -.3-.53 2.16 2.16 0 0 1 -.11-.71 2.2 2.2 0 0 1 .15-.71 1.63 1.63 0 0 1 .29-.52 1.28 1.28 0 0 1 .45-.32 1.43 1.43 0 0 1 1.1 0 1.28 1.28 0 0 1 .45.32 1.63 1.63 0 0 1 .29.52 2.2 2.2 0 0 1 .11.71 2.16 2.16 0 0 1 -.11.71 1.53 1.53 0 0 1 -.3.53 1.16 1.16 0 0 1 -.44.32 1.42 1.42 0 0 1 -.59.11zm0-.48a.73.73 0 0 0 .41-.12.8.8 0 0 0 .29-.39 1.64 1.64 0 0 0 .11-.68 1.82 1.82 0 0 0 -.11-.68.82.82 0 0 0 -.29-.38.73.73 0 0 0 -.41-.12.75.75 0 0 0 -.41.12.82.82 0 0 0 -.29.38 1.64 1.64 0 0 0 -.11.68 1.64 1.64 0 0 0 .11.68.8.8 0 0 0 .29.39.75.75 0 0 0 .41.12z"/><path d="m46.09 15.91a1.38 1.38 0 0 1 -.65-.15 1.14 1.14 0 0 1 -.44-.43 1.19 1.19 0 0 1 -.16-.64 1.16 1.16 0 0 1 .16-.63 1.11 1.11 0 0 1 .44-.42 1.38 1.38 0 0 1 .65-.15 1.22 1.22 0 0 1 .49.09 1.07 1.07 0 0 1 .36.21.89.89 0 0 1 .22.3.72.72 0 0 1 .08.32h-.57a0 0 0 0 0 0 0 .4.4 0 0 0 -.09-.2.45.45 0 0 0 -.19-.14.65.65 0 0 0 -.29-.06.7.7 0 0 0 -.33.08.56.56 0 0 0 -.24.24.82.82 0 0 0 -.09.4 1 1 0 0 0 .08.4.58.58 0 0 0 .24.25.64.64 0 0 0 .34.09.76.76 0 0 0 .32-.06.4.4 0 0 0 .18-.16.36.36 0 0 0 .07-.22h.58a.79.79 0 0 1 -.08.32.89.89 0 0 1 -.22.3 1.1 1.1 0 0 1 -.35.22 1.5 1.5 0 0 1 -.51.04z"/><path d="m47.88 14.85v-.41h1.63l-.06.11v-.05a.73.73 0 0 0 -.07-.29.53.53 0 0 0 -.21-.21.63.63 0 0 0 -.35-.08.8.8 0 0 0 -.36.08.55.55 0 0 0 -.24.26.82.82 0 0 0 -.09.4 1 1 0 0 0 .08.41.67.67 0 0 0 .24.26.76.76 0 0 0 .38.09 1.06 1.06 0 0 0 .27 0 .48.48 0 0 0 .18-.07.38.38 0 0 0 .11-.11.3.3 0 0 0 0-.11h.61a.61.61 0 0 1 -.09.28.94.94 0 0 1 -.24.25 1 1 0 0 1 -.36.18 1.55 1.55 0 0 1 -.5.07 1.36 1.36 0 0 1 -.65-.15 1.21 1.21 0 0 1 -.44-.43 1.4 1.4 0 0 1 0-1.26 1.14 1.14 0 0 1 .45-.42 1.32 1.32 0 0 1 .64-.15 1.4 1.4 0 0 1 .66.15 1.06 1.06 0 0 1 .42.42 1.34 1.34 0 0 1 .15.64v.1a.23.23 0 0 0 0 .07z"/><path d="m53 15.83v-2.33h.57v2.33zm1.64 0v-1.31a.64.64 0 0 0 -.05-.28.37.37 0 0 0 -.15-.2.51.51 0 0 0 -.3-.07.55.55 0 0 0 -.29.08.56.56 0 0 0 -.21.22.79.79 0 0 0 -.07.32l-.19-.12a1 1 0 0 1 .13-.52 1.1 1.1 0 0 1 .35-.36 1.06 1.06 0 0 1 .5-.12 1 1 0 0 1 .47.1.69.69 0 0 1 .29.32 1 1 0 0 1 .1.47v1.47z"/><path d="m40.46 14.44v-.18a.75.75 0 0 0 -.15-.46 1 1 0 0 0 -.41-.27 1.67 1.67 0 0 0 -.55-.09 1.59 1.59 0 0 0 -.57.1.9.9 0 0 0 -.4.29.71.71 0 0 0 -.15.46h.57a.33.33 0 0 1 .14-.29.69.69 0 0 1 .41-.1.7.7 0 0 1 .39.09.24.24 0 0 1 .1.1.23.23 0 0 1 0 .14s-.05.09-.16.12a5.35 5.35 0 0 1 -.56.07 2 2 0 0 0 -.49.11.79.79 0 0 0 -.35.24.56.56 0 0 0 -.13.39.57.57 0 0 0 .11.38.67.67 0 0 0 .31.24 1.36 1.36 0 0 0 .86 0 .86.86 0 0 0 .32-.15.24.24 0 0 0 .09-.08v.24h.58zm-.58.31v.07a.47.47 0 0 1 -.09.33.53.53 0 0 1 -.25.19.75.75 0 0 1 -.33.06.58.58 0 0 1 -.33-.07.2.2 0 0 1 -.09-.09.19.19 0 0 1 0-.13.18.18 0 0 1 0-.12.22.22 0 0 1 .1-.09 1.24 1.24 0 0 1 .39-.09l.4-.05h.19z"/><path d="m52.65 14.46v-.18a.69.69 0 0 0 -.15-.46 1.09 1.09 0 0 0 -.4-.27 1.76 1.76 0 0 0 -.55-.09 1.61 1.61 0 0 0 -.58.1.9.9 0 0 0 -.4.29.78.78 0 0 0 -.15.47h.58a.34.34 0 0 1 .14-.3.8.8 0 0 1 .41-.09.71.71 0 0 1 .39.08.27.27 0 0 1 .11.1.32.32 0 0 1 0 .14c0 .06 0 .1-.16.12a5 5 0 0 1 -.56.07 2.88 2.88 0 0 0 -.49.11 1 1 0 0 0 -.35.24.57.57 0 0 0 -.13.4.56.56 0 0 0 .11.37.73.73 0 0 0 .31.24 1.21 1.21 0 0 0 .46.08 1.92 1.92 0 0 0 .41-.05 1.37 1.37 0 0 0 .32-.16l.09-.08v.24h.57zm-.57.31v.08a.58.58 0 0 1 -.1.33.51.51 0 0 1 -.25.18.75.75 0 0 1 -.33.07.57.57 0 0 1 -.33-.08.14.14 0 0 1 -.08-.09.27.27 0 0 1 0-.12.28.28 0 0 1 .01-.14.22.22 0 0 1 .1-.09 1.3 1.3 0 0 1 .39-.09l.4-.05h.2z"/></g></g></svg>