<svg fill="none" height="72" viewBox="0 0 72 72" width="72" xmlns="http://www.w3.org/2000/svg" xmlns:xlink="http://www.w3.org/1999/xlink"><clipPath id="a"><path d="m0 0h72v72h-72z"/></clipPath><g clip-path="url(#a)"><circle cx="36" cy="36" fill="#fff" r="35.5" stroke="#e3e8f4"/><path clip-rule="evenodd" d="m18 23.0701h15.5926v25.0346h-15.5926z" fill="#cdf4ff" fill-rule="evenodd"/><path d="m18 20.5714h15.5926v2.4987h-15.5926zm0 27.5333h15.5926v2.4986h-15.5926zm15.5926-25.0346h20.9822v25.0346h-20.9822zm-15.5926 6.8793h15.5926v1.6978h-15.5926zm0 6.3748h15.5926v1.6978h-15.5926zm0 6.3747h15.5926v1.6979h-15.5926z" fill="#00c6ff"/><path d="m20.0583 26.778h13.5424v3.1714h-13.5424zm0 12.7496h13.5424v3.1714h-13.5424zm0-6.3748h13.5424v3.1714h-13.5424z" fill="#fff"/><path d="m33.5926 26.778h-2.6749l2.6749 3.1714zm0 12.7496h-2.6749l2.6749 3.1714zm0-6.3748h-2.6749l2.6749 3.1714z" fill="#0080c8"/><path d="m22.6211 27.7631h5.9823v1.2012h-5.9823zm0 6.3747h5.9823v1.2013h-5.9823zm0 6.3748h5.9823v1.2013h-5.9823z" fill="#00c6ff"/><path d="m33.5925 48.1047v2.4986h18.4917l2.4986-2.4986zm0-27.5333v2.4987h20.9903l-2.4986-2.4987z" fill="#0080c8"/></g></svg>