<svg fill="none" height="72" viewBox="0 0 72 72" width="72" xmlns="http://www.w3.org/2000/svg" xmlns:xlink="http://www.w3.org/1999/xlink"><clipPath id="a"><path d="m0 0h72v72h-72z"/></clipPath><g clip-path="url(#a)"><circle cx="36" cy="36" fill="#fff" r="35.5" stroke="#e3e8f4"/><g clip-rule="evenodd" fill-rule="evenodd"><path d="m18 24.2486h36.3171v26.7857h-36.3171z" fill="#00c6ff"/><path d="m50.2714 24.2486h-28.2257v22.8943h32.2714v-15.8829z" fill="#0080c8"/><path d="m33.1285 20.5714h-11.0828v21.0943h11.0828l3.0343 3.0257v-21.0857z" fill="#cdf4ff"/><path d="m39.1886 41.6657h11.0828v-21.0943h-11.0828l-3.0258 3.0343v21.0857z" fill="#00c6ff"/></g><path d="m24.9771 23.6057h6.7457v1.2857h-6.7457zm0 3.2657h6.7457v1.2857h-6.7457zm0 3.2657h6.7457v1.2858h-6.7457zm0 3.2658h6.7457v1.2857h-6.7457zm0 3.2657h6.7457v1.2857h-6.7457z" fill="#00c6ff"/><path d="m40.5942 23.6057h6.7458v1.2857h-6.7458zm0 3.2657h6.7458v1.2857h-6.7458zm0 3.2657h6.7458v1.2858h-6.7458zm0 3.2658h6.7458v1.2857h-6.7458zm0 3.2657h6.7458v1.2857h-6.7458z" fill="#cdf4ff"/></g></svg>