<svg fill="none" height="72" viewBox="0 0 72 72" width="72" xmlns="http://www.w3.org/2000/svg" xmlns:xlink="http://www.w3.org/1999/xlink"><clipPath id="a"><path d="m0 0h72v72h-72z"/></clipPath><g clip-path="url(#a)"><circle cx="36" cy="36" fill="#fff" r="35.5" stroke="#e3e8f4"/><path d="m47.8167 42.5808v-17.4423l-4.3149-5.1385h-15.9662l-4.3149 5.1385v17.443" stroke="#00c6ff" stroke-width="3.073"/><path d="m49.5611 42.5808v-17.4423l-4.3149-5.1385h-15.9684l-4.3149 5.1385v17.443" stroke="#cdf4ff" stroke-width="3.073"/><path d="m39.2113 51.0843h-10.2484l-2.7969-2.8013v-9.2605" stroke="#00c6ff" stroke-width="1.679"/><g clip-rule="evenodd" fill-rule="evenodd"><path d="m39.0639 49.5633h.0044c.4034 0 .7902.1602 1.0755.4455.2852.2852.4454.6721.4454 1.0754 0 .4034-.1602.7903-.4454 1.0755-.2853.2852-.6721.4455-1.0755.4455h-.0044c-.4034 0-.7902-.1603-1.0755-.4455-.2852-.2852-.4454-.6721-.4454-1.0755 0-.4033.1602-.7902.4454-1.0754.2853-.2853.6721-.4455 1.0755-.4455zm6.9359-16.5491-2.797 2.8013v6.897l2.797 2.8013h5.7992l2.7976-2.8013v-6.897l-2.7976-2.8028z" fill="#0080c8"/><path d="m43.5347 33.0142-2.7984 2.8013v6.897l2.7977 2.8013h5.7992l2.7984-2.8013v-6.897l-2.7984-2.8028z" fill="#00c6ff"/><path d="m45.253 36.716-1.1426 1.1404v2.8094l1.1426 1.1403h2.3635l1.1418-1.1403v-2.8094l-1.1418-1.1404zm-21.9846-3.7018-2.7977 2.8013v6.897l2.7977 2.7991h5.7992l2.7962-2.7991v-6.897l-2.797-2.8028z" fill="#0080c8"/><path d="m20.7991 33.0142-2.7991 2.8013v6.897l2.7984 2.8013h5.7985l2.8013-2.8013v-6.897l-2.8013-2.8028z" fill="#00c6ff"/></g></g></svg>