<svg fill="none" height="72" viewBox="0 0 72 72" width="72" xmlns="http://www.w3.org/2000/svg" xmlns:xlink="http://www.w3.org/1999/xlink"><clipPath id="a"><path d="m0 0h72v72h-72z"/></clipPath><g clip-path="url(#a)"><circle cx="36" cy="36" fill="#fff" r="35.5" stroke="#e3e8f4"/><path clip-rule="evenodd" d="m35.6525 18-4.2697 4.1909v14.0886h15.716l5.4507 5.3501v-5.3501h5.4506v-18.2795z" fill="#0080c8" fill-rule="evenodd"/><path clip-rule="evenodd" d="m14 29.4074v18.2795h5.3577v5.3501l5.3577-5.3501h11.1618l4.1969-4.1909v-9.8085l-4.1969-4.1909z" fill="#00c6ff" fill-rule="evenodd"/><path d="m36.5432 22.0741h15.7531v1.3444h-15.7531zm0 3.854h4.3457v1.3445h-4.3457zm5.7037 0h10.0494v1.3445h-10.0494zm.5432 3.7645h9.5062v1.3444h-9.5062z" fill="#cdf4ff"/><path d="m18.6172 33.4815h9.9458v1.3444h-9.9458zm0 3.7644h17.3827v1.3445h-17.3827zm0 3.8541h5.6449v1.3444h-5.6449zm6.9889 0h5.6449v1.3444h-5.6449z" fill="#cdf4ff"/><g clip-rule="evenodd" fill-rule="evenodd"><path d="m19.7031 47.6055h5.4321l-5.4321 5.4321z" fill="#0080c8"/><path d="m52.2954 36.1973h-5.4321l5.4321 5.4321z" fill="#00c6ff"/></g></g></svg>